# xmcd
#
# Track frame offsets:
#	150
#	13811
#	32574
#	44056
#	55415
#	68893
#
# Disc length: 1037 seconds
#
# Revision: 1
# Processed by: cddbd v1.5.1PL2 Copyright (c) Steve Scherf et al.
# Submitted via: audiograbber 1.83.01
#
DISCID=52040b06
DTITLE=Various Artist - Country Heart Warmers
DYEAR=1900
DGENRE=
TTITLE0=Jamie O'Neal - When I Think About Angels
TTITLE1=Amy Grant - Lucky One
TTITLE2=lee Anne Womack - If You're Ever Down In Dallas
TTITLE3=Patty Loveless - Timber I'm Falling In Love
TTITLE4=Loretta Lynn - Coal Miner's Daughter
TTITLE5=Patsy Cline - Walkin' After Midnight
EXTD=A freebie CD found in some Banquet Dessert Bakes boxes
EXTT0=Jamie O'Neal
EXTT1=Amy Grant
EXTT2=Lee Ann Womack
EXTT3=Patty Loveless
EXTT4=Loretta Lynn
EXTT5=Patsy Cline
PLAYORDER=
